# xmcd
#
# Track frame offsets:
#	150
#	13262
#	25637
#	40487
#	52262
#	62462
#	78062
#	93287
#	107012
#	118262
#	131612
#	145337
#	159887
#	173012
#	185387
#	197010
#	214187
#	224462
#	239162
#	249587
#
# Disc length: 3546 seconds
#
# Revision: 2
# Processed by: cddbd v1.4PL0 Copyright (c) Steve Scherf et al.
# Submitted via: audiograbber 1.80
#
DISCID=1d0dd814
DTITLE=Various, Country - Country Memories, Disk 2
DYEAR=1900
DGENRE=
TTITLE0=L Anderson - Rose Garden
TTITLE1=D Fargo - Funny Face
TTITLE2=W Jennings - Luckenbach Texas
TTITLE3=F Fender - Before the Next Teardrop Falls
TTITLE4=Statler Brothers - SDo You Know You Are My Sunshine
TTITLE5=D Williams - 'Til The Rivers All Run Dry
TTITLE6=BJ Thomas - Another Somebody Done Somebody Wrong Song
TTITLE7=B Fairchild - Teddy Bear Song
TTITLE8=F Hart - Easy Loving
TTITLE9=W Jennings - Amanda
TTITLE10=C Twitty - You've Never Been This Far Before
TTITLE11=M Montgomery - No Change
TTITLE12=J Greene - Statue of a Fool
TTITLE13=J Wallace - If You Leave Me Tonight I'll Cry
TTITLE14=S Smith - Help Me Make it Through the Night
TTITLE15=CW McCall - Convoy
TTITLE16=B 'Crash' Craddock - Rub It In
TTITLE17=Jeannie C Riley - Harper Valley PTA
TTITLE18=J Reed - When You're Hot, You're Hot
TTITLE19=C Smith - Country Bumpkin
EXTD=
EXTT0=
EXTT1=
EXTT2=
EXTT3=
EXTT4=
EXTT5=
EXTT6=
EXTT7=
EXTT8=
EXTT9=
EXTT10=
EXTT11=
EXTT12=
EXTT13=
EXTT14=
EXTT15=
EXTT16=
EXTT17=
EXTT18=
EXTT19=
PLAYORDER=
